HIERARCHY
ROOT Hips
{
	OFFSET -0.001795 -0.223333 0.028219
	CHANNELS 6 Xposition Yposition Zposition Zrotation Yrotation Xrotation 
	JOINT LeftUpLeg
	{
		OFFSET 0.069520 -0.091406 -0.006815
		CHANNELS 3 Zrotation Yrotation Xrotation
		JOINT LeftLeg
		{
			OFFSET 0.034277 -0.375199 -0.004496
			CHANNELS 3 Zrotation Yrotation Xrotation
			JOINT LeftFoot
			{
				OFFSET -0.013596 -0.397961 -0.043693
				CHANNELS 3 Zrotation Yrotation Xrotation
				JOINT LeftToe
				{
					OFFSET 0.026358 -0.055791 0.119288
					CHANNELS 3 Zrotation Yrotation Xrotation
					End Site
					{
						OFFSET 0.000000 0.000000 0.000000
					}
				}
			}
		}
	}
	JOINT RightUpLeg
	{
		OFFSET -0.067670 -0.090522 -0.004320
		CHANNELS 3 Zrotation Yrotation Xrotation
		JOINT RightLeg
		{
			OFFSET -0.038290 -0.382569 -0.008850
			CHANNELS 3 Zrotation Yrotation Xrotation
			JOINT RightFoot
			{
				OFFSET 0.015774 -0.398415 -0.042312
				CHANNELS 3 Zrotation Yrotation Xrotation
				JOINT RightToe
				{
					OFFSET -0.025372 -0.048144 0.123348
					CHANNELS 3 Zrotation Yrotation Xrotation
					End Site
					{
						OFFSET 0.000000 0.000000 0.000000
					}
				}
			}
		}
	}
	JOINT Spine
	{
		OFFSET -0.002533 0.108963 -0.026696
		CHANNELS 3 Zrotation Yrotation Xrotation
		JOINT Spine1
		{
			OFFSET 0.005487 0.135180 0.001092
			CHANNELS 3 Zrotation Yrotation Xrotation
			JOINT Spine2
			{
				OFFSET 0.001457 0.052922 0.025425
				CHANNELS 3 Zrotation Yrotation Xrotation
				JOINT Neck
				{
					OFFSET -0.002778 0.213870 -0.042857
					CHANNELS 3 Zrotation Yrotation Xrotation
					JOINT Head
					{
						OFFSET 0.005152 0.064970 0.051349
						CHANNELS 3 Zrotation Yrotation Xrotation
						End Site
						{
							OFFSET 0.000000 0.000000 0.000000
						}
					}
				}
				JOINT LeftShoulder
				{
					OFFSET 0.078845 0.121749 -0.034090
					CHANNELS 3 Zrotation Yrotation Xrotation
					JOINT LeftArm
					{
						OFFSET 0.090977 0.030469 -0.008868
						CHANNELS 3 Zrotation Yrotation Xrotation
						JOINT LeftForeArm
						{
							OFFSET 0.259612 -0.012772 -0.027456
							CHANNELS 3 Zrotation Yrotation Xrotation
							JOINT LeftHand
							{
								OFFSET 0.249234 0.008986 -0.001171
								CHANNELS 3 Zrotation Yrotation Xrotation
								End Site
								{
									OFFSET 0.000000 0.000000 0.000000
								}
							}
						}
					}
				}
				JOINT RightShoulder
				{
					OFFSET -0.081759 0.118833 -0.038615
					CHANNELS 3 Zrotation Yrotation Xrotation
					JOINT RightArm
					{
						OFFSET -0.096012 0.032551 -0.009143
						CHANNELS 3 Zrotation Yrotation Xrotation
						JOINT RightForeArm
						{
							OFFSET -0.253742 -0.013329 -0.021401
							CHANNELS 3 Zrotation Yrotation Xrotation
							JOINT RightHand
							{
								OFFSET -0.255298 0.007772 -0.005559
								CHANNELS 3 Zrotation Yrotation Xrotation
								End Site
								{
									OFFSET 0.000000 0.000000 0.000000
								}
							}
						}
					}
				}
			}
		}
	}
}
MOTION
Frames: 16
Frame Time: 0.050000
0.000000 0.935976 0.000000 -1.955673 -6.726782 3.637209 5.957852 -0.577925 -18.099178 -3.109079 0.396473 7.446938 5.638908 12.391174 5.118569 0.000000 0.000000 0.000000 2.287797 -0.606316 4.501571 -1.895442 0.168596 -0.122782 -0.991827 -1.090561 -2.329652 0.000000 0.000000 0.000000 3.776054 -0.279627 2.777109 -2.011121 0.918450 -2.928526 -0.644107 6.098915 4.897464 6.408886 -2.281495 -17.274967 0.000000 0.000000 0.000000 -20.844575 2.084536 -3.898872 -40.383771 -6.440457 -2.523518 2.143592 -12.021502 0.190161 0.000000 0.000000 0.000000 18.883203 -6.939037 -4.895419 47.645831 8.904911 -1.339502 -8.472281 15.432778 -0.351387 0.000000 0.000000 0.000000 
0.006561 0.933535 0.017361 -2.837587 -6.854273 4.073636 6.383541 -0.506852 -17.978050 -2.858637 0.345618 6.316794 5.483018 12.208213 6.205689 0.000000 0.000000 0.000000 2.844103 -0.695711 4.853936 -2.958596 0.310326 0.525033 -0.848146 -0.750716 -2.253804 0.000000 0.000000 0.000000 4.202673 -0.300622 2.742921 -2.286102 1.036607 -3.134917 -1.031710 6.493328 3.981533 6.355260 -1.794296 -19.971669 0.000000 0.000000 0.000000 -20.043564 2.913162 -4.337919 -41.954428 -7.776293 -2.093513 1.381419 -12.448412 0.264782 0.000000 0.000000 0.000000 19.023499 -8.099166 -5.485330 49.971138 9.159521 -1.157991 -9.054060 16.367112 -0.435403 0.000000 0.000000 0.000000 
0.015668 0.932767 0.036737 -2.447391 -8.032637 3.342581 5.277588 -0.587288 -15.864708 -2.177417 0.238402 5.482024 6.231640 13.578813 7.486506 0.000000 0.000000 0.000000 1.344920 -0.683858 6.165421 -2.130480 0.292676 1.615960 -0.983478 -1.232367 -1.976682 0.000000 0.000000 0.000000 3.749623 -0.350847 3.885668 -2.305641 0.995737 -5.581230 -1.430569 7.601357 5.814392 6.695052 -2.024940 -19.638853 0.000000 0.000000 0.000000 -19.514798 1.707227 -3.662379 -43.852040 -7.723803 -2.350781 1.125775 -14.388895 0.332773 0.000000 0.000000 0.000000 20.400875 -7.100262 -4.966138 50.323398 10.437963 -0.880988 -6.460433 16.164246 -0.104672 0.000000 0.000000 0.000000 
0.027307 0.931878 0.058404 -2.638010 -8.196443 3.220378 4.838017 -0.619614 -14.988891 -2.747060 0.340276 5.331460 6.277213 13.660765 7.515279 0.000000 0.000000 0.000000 0.487109 -0.623792 6.466406 -1.995956 0.406126 3.638039 -1.317574 -1.899131 -2.290311 0.000000 0.000000 0.000000 3.326151 -0.300898 3.478290 -2.286323 0.997648 -4.859107 -1.194317 7.175092 4.896154 6.758104 -2.183755 -19.053967 0.000000 0.000000 0.000000 -20.561200 2.552006 -4.194553 -43.998660 -9.118502 -1.815460 -0.347299 -14.881004 0.539744 0.000000 0.000000 0.000000 20.436033 -6.501718 -4.785053 50.820424 11.567471 -0.285505 -4.367399 16.377173 0.109998 0.000000 0.000000 0.000000 
0.041010 0.932354 0.081430 -2.358689 -8.189322 2.893590 3.647085 -0.727506 -13.749702 -2.551982 0.305831 4.939834 6.413855 13.954508 8.364096 0.000000 0.000000 0.000000 -1.103443 -0.495561 6.966405 -1.561892 0.427139 4.839612 -1.566466 -3.221311 -1.127331 0.000000 0.000000 0.000000 3.133964 -0.262952 3.082919 -2.607080 1.141339 -4.504415 -1.378035 7.584223 4.652848 7.074079 -2.375778 -18.626130 0.000000 0.000000 0.000000 -21.295088 1.281121 -3.763172 -44.074038 -10.257004 -1.353405 -1.403962 -16.145171 0.716719 0.000000 0.000000 0.000000 21.369993 -5.841985 -4.411825 51.482253 12.667699 0.164009 -3.598860 16.527182 0.214427 0.000000 0.000000 0.000000 
0.056109 0.932264 0.104668 -2.071873 -7.341314 2.563893 2.515908 -0.821645 -12.708430 -2.667340 0.316974 5.286423 6.243649 13.632969 6.805114 0.000000 0.000000 0.000000 -2.659154 -0.319269 6.610906 -1.064088 0.583037 8.509477 -1.866305 -3.949790 -1.242292 0.000000 0.000000 0.000000 2.520375 -0.237254 3.130419 -2.350031 1.041013 -4.562160 -1.372012 6.928965 4.753419 7.772763 -2.818705 -18.566199 0.000000 0.000000 0.000000 -22.336299 0.638383 -3.521861 -44.721162 -11.554093 -0.908691 -3.063020 -18.453057 1.088779 0.000000 0.000000 0.000000 21.166046 -4.384227 -3.600701 52.486342 14.266711 0.902752 -2.221271 17.364146 0.390795 0.000000 0.000000 0.000000 
0.071830 0.933513 0.127211 -2.100441 -6.809934 2.267819 1.632612 -0.838461 -11.380752 -3.300211 0.422163 5.553989 6.178592 13.499078 5.982317 0.000000 0.000000 0.000000 -4.419363 -0.029594 4.206059 -0.045402 0.783550 14.922152 -1.964308 -5.288992 0.903156 0.000000 0.000000 0.000000 2.453217 -0.234700 3.173569 -2.520247 1.124974 -4.340110 -1.479096 6.834852 4.729562 7.890488 -2.883652 -18.458085 0.000000 0.000000 0.000000 -22.603653 -1.005490 -2.702511 -45.700880 -12.772793 -0.445431 -4.749033 -19.478230 1.426209 0.000000 0.000000 0.000000 21.199596 -2.886941 -2.684383 52.694265 15.392994 1.389961 -1.568246 18.675897 0.518054 0.000000 0.000000 0.000000 
0.086894 0.934053 0.147983 -2.264438 -4.361212 1.614969 0.751572 -0.825192 -9.884654 -3.736009 0.469362 6.563106 5.392181 11.793454 2.959751 0.000000 0.000000 0.000000 -5.277570 0.085776 2.221588 0.960469 0.860043 22.330918 -2.484796 -7.230109 2.618709 0.000000 0.000000 0.000000 1.908532 -0.240918 3.754794 -2.003860 0.930023 -4.821692 -1.501593 5.659666 6.122591 7.348622 -2.488067 -19.112933 0.000000 0.000000 0.000000 -22.964982 -3.614577 -1.262487 -45.651072 -14.817611 0.220695 -4.472354 -19.474562 1.387633 0.000000 0.000000 0.000000 21.098622 -1.361272 -1.712306 52.113370 17.461671 2.099953 -1.730273 19.528452 0.533072 0.000000 0.000000 0.000000 
0.100399 0.934467 0.167033 -2.286781 -3.359732 1.233112 -0.882994 -0.825888 -8.513036 -2.933675 0.310319 7.272390 5.054268 10.987340 1.937996 0.000000 0.000000 0.000000 -5.811554 0.359709 -3.373271 2.225539 0.902928 33.953783 -3.492221 -10.100687 4.546640 0.000000 0.000000 0.000000 1.324121 -0.226066 4.015307 -1.709489 0.817110 -4.105363 -1.825724 4.492148 6.008097 7.469066 -2.534699 -19.657652 0.000000 0.000000 0.000000 -22.856912 -4.339615 -0.667476 -44.835705 -17.101034 1.001010 -3.700432 -19.388777 1.269547 0.000000 0.000000 0.000000 20.646320 0.143801 -0.970646 51.227884 18.767766 2.622151 -2.161876 21.538589 0.501419 0.000000 0.000000 0.000000 
0.111820 0.934926 0.185230 -2.443641 -2.259090 0.967733 -1.901751 -0.766397 -7.329746 -2.580617 0.225440 7.889374 4.629814 9.959864 0.998433 0.000000 0.000000 0.000000 -5.424027 0.704395 -10.067945 3.221932 0.657324 44.497879 -4.674540 -13.073321 6.784772 0.000000 0.000000 0.000000 0.724616 -0.243556 5.011411 -1.126820 0.585077 -4.938826 -2.098347 4.025532 7.282454 7.629692 -2.522683 -20.447836 0.000000 0.000000 0.000000 -22.926411 -7.159409 0.947840 -43.337697 -18.366447 1.298892 -2.638856 -19.009119 1.076139 0.000000 0.000000 0.000000 19.914720 1.208778 -0.246772 50.651482 20.350381 3.123632 -2.819742 22.736123 0.434745 0.000000 0.000000 0.000000 
0.121144 0.936333 0.203604 -2.861459 -0.828226 1.190845 -2.448661 -0.652793 -6.119825 -1.722855 0.055537 7.424127 3.789682 7.938738 -0.162676 0.000000 0.000000 0.000000 -3.987432 1.138384 -15.511606 3.959851 -0.000298 50.007778 -5.571604 -14.685498 5.474198 0.000000 0.000000 0.000000 0.877503 -0.287139 5.652360 -0.701620 0.419733 -4.781101 -2.638413 2.097039 7.115014 7.676479 -2.604520 -20.862229 0.000000 0.000000 0.000000 -22.945628 -7.507081 1.483850 -42.629489 -20.432703 1.897957 -1.773197 -17.522512 0.888088 0.000000 0.000000 0.000000 18.587486 2.715411 0.357022 50.585355 21.713075 3.812386 -5.117334 23.326668 -0.023801 0.000000 0.000000 0.000000 
0.129125 0.938825 0.222764 -3.327485 0.575163 1.525647 -2.646975 -0.454290 -4.399401 -1.166418 -0.027521 6.200321 3.284231 6.551368 -1.100819 0.000000 0.000000 0.000000 -1.739095 1.787810 -20.582151 3.422929 -0.061869 51.171474 -4.997790 -13.250388 4.327752 0.000000 0.000000 0.000000 0.940460 -0.333670 6.390615 0.195976 0.065558 -5.157677 -3.303636 1.347759 7.263383 8.558160 -3.017303 -21.314152 0.000000 0.000000 0.000000 -21.879070 -8.170816 1.879576 -42.509957 -21.340620 2.199197 0.287051 -16.827989 0.553866 0.000000 0.000000 0.000000 18.247258 2.837842 0.476019 48.640761 22.937118 4.066300 -7.218697 23.232753 -0.396904 0.000000 0.000000 0.000000 
0.136649 0.941212 0.243184 -3.778477 1.508887 1.846391 -2.995568 -0.257073 -2.722774 -0.398858 -0.108735 4.697974 2.703493 5.258005 -1.167555 0.000000 0.000000 0.000000 0.186030 2.505293 -25.114858 3.045117 -0.085479 47.994953 -4.941814 -13.002244 3.730362 0.000000 0.000000 0.000000 1.047141 -0.376698 6.963725 1.002186 -0.254587 -5.366260 -3.624986 0.167754 7.309475 8.353873 -2.863580 -22.006826 0.000000 0.000000 0.000000 -21.519968 -8.168119 2.090103 -42.283320 -21.545769 2.189709 1.861517 -16.647472 0.340109 0.000000 0.000000 0.000000 17.605135 2.943930 0.406916 47.159012 23.888185 4.286340 -9.106981 21.943701 -0.718485 0.000000 0.000000 0.000000 
0.144141 0.942721 0.265259 -4.235440 2.301065 2.562938 -3.462781 -0.066116 -1.215989 0.551238 -0.169346 2.764858 2.226133 4.391436 -0.724470 0.000000 0.000000 0.000000 2.792671 3.482357 -29.389305 2.227688 0.196316 42.064680 -3.973391 -10.842292 3.893484 0.000000 0.000000 0.000000 1.206597 -0.429862 7.564778 1.535074 -0.424410 -6.281287 -3.529677 -0.651472 7.374271 8.575293 -2.889536 -22.877922 0.000000 0.000000 0.000000 -21.431894 -7.699347 1.960277 -42.320812 -21.490411 2.135130 3.203858 -16.283950 0.159564 0.000000 0.000000 0.000000 16.509639 2.507619 0.135009 45.596839 24.454182 4.314344 -10.402757 20.612418 -0.884632 0.000000 0.000000 0.000000 
0.151941 0.941997 0.289525 -4.252284 2.960942 3.461318 -4.269884 0.111583 0.006863 1.188747 -0.202864 1.753415 2.085747 3.794161 -1.388253 0.000000 0.000000 0.000000 4.447300 4.121858 -31.737280 2.046868 0.167211 33.417626 -2.835935 -8.279464 4.003504 0.000000 0.000000 0.000000 1.367634 -0.437678 7.327955 1.947020 -0.534730 -7.196063 -3.869744 -1.666324 8.195011 8.447850 -2.705910 -24.231747 0.000000 0.000000 0.000000 -19.632319 -6.704947 1.694529 -43.018070 -21.920195 2.214601 3.868831 -16.440750 0.091884 0.000000 0.000000 0.000000 15.331096 1.626859 -0.362281 44.372169 24.774654 4.222894 -11.605551 19.313811 -1.007123 0.000000 0.000000 0.000000 
0.159910 0.938461 0.316726 -3.930713 3.983754 4.199467 -5.509493 0.429624 2.014928 1.959514 -0.225726 0.535394 1.577296 2.363686 -2.019725 0.000000 0.000000 0.000000 6.426145 4.636372 -32.486371 2.227589 -0.011395 23.518410 -1.776545 -6.171016 5.240187 0.000000 0.000000 0.000000 1.535686 -0.449493 7.157443 2.005831 -0.541664 -7.166841 -4.140868 -2.998138 7.427359 7.753065 -2.438280 -23.922008 0.000000 0.000000 0.000000 -18.173104 -5.967181 1.517955 -43.810652 -22.244973 2.430337 5.151668 -16.962297 -0.069239 0.000000 0.000000 0.000000 14.583115 1.400498 -0.587180 42.569523 24.757284 4.056719 -12.888294 17.048414 -1.055119 0.000000 0.000000 0.000000 
